<svg width="36" height="32" viewBox="0 0 36 32" fill="none" xmlns="http://www.w3.org/2000/svg">
<path d="M17.6685 32C17.3827 32 17.1716 31.9814 17.1382 31.9779L17.0986 31.9735C14.9545 31.6974 13.645 29.9101 12.9415 28.9501C11.7278 27.2938 10.1017 25.049 8.28654 22.3717C7.93037 21.847 8.06492 21.1312 8.58644 20.7728C9.10795 20.4145 9.81943 20.5499 10.1756 21.0745C11.9706 23.721 13.5808 25.9436 14.7822 27.584C15.5024 28.567 16.2948 29.5376 17.366 29.688C17.4346 29.6933 17.7055 29.7101 17.9772 29.6863C18.1373 29.6721 19.0343 29.4996 21.0271 27.4769C22.4369 26.0462 24.041 24.0519 25.6662 21.7098C29.0917 16.7744 31.9517 11.2799 33.1301 7.36995C34.0017 4.48021 33.7809 3.02207 33.2849 2.62126C32.7159 2.16205 31.3642 2.06384 29.2746 3.16275C25.376 5.21282 21.8688 7.54249 18.8514 10.0863C18.8408 10.0951 18.1724 10.6587 17.0424 11.5161C20.2093 14.0988 22.7104 16.3993 22.91 16.5824C23.3753 17.0116 23.4069 17.7398 22.9795 18.2078C22.553 18.6759 21.8292 18.7077 21.364 18.2777C21.313 18.2308 18.5286 15.6702 15.1225 12.9194C14.6828 13.23 14.2123 13.5538 13.7154 13.8856C9.68751 16.5789 7.69555 17.331 5.82056 16.8665C4.39585 16.5134 3.15759 15.5623 2.14182 14.0395L2.13567 14.0307C0.735582 11.8939 0.177131 9.46515 0.153385 9.36251L0.138435 9.28377C-0.257318 6.71521 0.196479 4.9757 1.48663 4.11479C2.498 3.43969 3.87962 3.40607 5.59191 4.01569C6.57337 4.36519 7.37807 4.82882 7.59002 4.95535C9.84317 6.06576 12.6187 8.03267 15.1867 10.0376C16.5393 9.03071 17.3669 8.33615 17.3801 8.32465C20.5241 5.67469 24.1685 3.253 28.2131 1.12595C30.8568 -0.26406 33.226 -0.372005 34.714 0.829547C36.195 2.02579 36.3982 4.4519 35.3165 8.03974C34.0729 12.1655 31.0925 17.9087 27.5395 23.0291C25.8404 25.4773 24.1501 27.5751 22.6497 29.0979C20.8442 30.9303 19.3808 31.8726 18.176 31.9788C17.9966 31.9947 17.8215 32 17.6685 32ZM4.04232 12.7637C4.73005 13.7936 5.51188 14.4227 6.36494 14.6341C7.10632 14.8173 8.24873 14.7783 12.4472 11.9709C12.719 11.7895 12.9819 11.6099 13.237 11.4338C10.9135 9.64388 8.48706 7.95038 6.54347 7.00011L6.49246 6.97533L6.44409 6.94525C5.34038 6.26484 3.44077 5.56851 2.7504 6.03126C2.30188 6.33209 2.16821 7.39738 2.39159 8.88649C2.46018 9.1652 2.96059 11.1082 4.04232 12.7637Z" fill="url(#paint0_linear_12570_5708)"/>
<defs>
<linearGradient id="paint0_linear_12570_5708" x1="5.85047" y1="20.5481" x2="36.2558" y2="3.09933" gradientUnits="userSpaceOnUse">
<stop stop-color="#C33FFF"/>
<stop offset="0.63" stop-color="#7F66EF"/>
</linearGradient>
</defs>
</svg>
